<svg xmlns="http://www.w3.org/2000/svg" viewBox="0 0 40 26" role="img" aria-label="Apple Pay">
  <rect width="40" height="26" rx="3" fill="#fff" stroke="#e5e7eb"/>
  <g fill="#000">
    <path d="M12.1 9.6c.3-.4.5-.9.4-1.4-.4 0-.9.3-1.2.6-.3.3-.5.8-.4 1.3.5 0 .9-.2 1.2-.5z"/>
    <path d="M12.5 10.3c-.7 0-1.2.4-1.6.4-.3 0-.8-.4-1.4-.4-.7 0-1.4.4-1.7 1.1-.7 1.3-.2 3.1.5 4.1.4.5.8 1.1 1.3 1 .5 0 .7-.3 1.4-.3.6 0 .8.3 1.4.3.6 0 .9-.5 1.3-1 .3-.4.4-.7.6-1.2-1.4-.5-1.6-2.5-.2-3.3-.4-.5-1-.7-1.6-.7z"/>
    <path d="M18.5 8.4c1.5 0 2.5.9 2.5 2.3 0 1.4-1 2.4-2.5 2.4h-1.6v2.9h-1.2V8.4h2.8zm-1.6 3.6h1.3c1 0 1.6-.5 1.6-1.4 0-.8-.6-1.3-1.6-1.3h-1.3V12z"/>
    <path d="M21.2 14.5c0-.9.7-1.4 2-1.5l1.4-.1v-.4c0-.6-.4-.9-1-.9-.6 0-1 .3-1.1.7h-1.1c0-.9.9-1.6 2.2-1.6 1.3 0 2.1.7 2.1 1.8v3.5h-1.1v-.8h0c-.3.6-1 .9-1.6.9-1 0-1.8-.6-1.8-1.6zm3.4-.4v-.4l-1.2.1c-.7 0-1 .3-1 .7 0 .4.4.7.9.7.7 0 1.3-.5 1.3-1.1z"/>
    <path d="M26.3 17.5v-.9c.1 0 .3 0 .4 0 .5 0 .7-.2.9-.7l.1-.3-1.9-5.3h1.2l1.3 4.3h0l1.3-4.3h1.2l-2 5.6c-.5 1.3-1 1.7-2.1 1.7-.1 0-.4 0-.5 0z"/>
  </g>
</svg>
