<svg xmlns="http://www.w3.org/2000/svg" viewBox="0 0 40 26" role="img" aria-label="Google Pay">
  <rect width="40" height="26" rx="3" fill="#fff" stroke="#e5e7eb"/>
  <path d="M19.6 13.1v2.8h-.9V9h2.4c.6 0 1.1.2 1.5.6.4.4.6.9.6 1.4 0 .6-.2 1-.6 1.4-.4.4-.9.6-1.5.6h-1.5zm0-3.3v2.4h1.5c.4 0 .6-.1.9-.4.2-.2.3-.5.3-.8 0-.3-.1-.6-.3-.8-.2-.2-.5-.4-.9-.4h-1.5z" fill="#5F6368"/>
  <path d="M25.3 11c.7 0 1.2.2 1.6.5.4.4.6.8.6 1.5v2.9h-.9v-.7h0c-.4.6-.9.8-1.5.8-.5 0-1-.2-1.3-.5-.3-.3-.5-.7-.5-1.1 0-.5.2-.9.5-1.1.4-.3.9-.4 1.5-.4.5 0 1 .1 1.3.3v-.2c0-.3-.1-.5-.3-.7-.2-.2-.5-.3-.8-.3-.5 0-.8.2-1.1.6l-.8-.5c.4-.6 1-.9 1.9-.9zm-1.2 3.4c0 .2.1.4.3.5.2.1.4.2.6.2.3 0 .6-.1.9-.4.3-.2.4-.5.4-.8-.3-.2-.6-.3-1.1-.3-.3 0-.6.1-.8.2-.2.2-.3.3-.3.4z" fill="#5F6368"/>
  <path d="M32.8 11.2l-3 6.8h-.9l1.1-2.4-2-4.4h1l1.4 3.4h0l1.4-3.4h1z" fill="#5F6368"/>
  <path d="M15.6 12.6c0-.3 0-.6-.1-.8h-3.3v1.6h1.9c-.1.5-.3.8-.7 1.1v.9h1.2c.7-.6 1.1-1.6 1.1-2.8z" fill="#4285F4"/>
  <path d="M12.2 16c1 0 1.8-.3 2.4-.9l-1.2-.9c-.3.2-.7.4-1.2.4-1 0-1.7-.6-2-1.5h-1.2v.9c.6 1.2 1.8 2 3.2 2z" fill="#34A853"/>
  <path d="M10.2 13.1c-.1-.2-.1-.5-.1-.7 0-.2 0-.5.1-.7v-.9H9c-.3.5-.4 1-.4 1.6 0 .6.1 1.1.4 1.6l1.2-.9z" fill="#FBBC04"/>
  <path d="M12.2 10.2c.6 0 1.1.2 1.5.6l1.1-1.1c-.7-.6-1.5-1-2.6-1-1.4 0-2.6.8-3.2 2l1.2.9c.3-.9 1-1.4 2-1.4z" fill="#EA4335"/>
</svg>
