<svg xmlns="http://www.w3.org/2000/svg" viewBox="0 0 40 26" role="img" aria-label="PayPal">
  <rect width="40" height="26" rx="3" fill="#fff" stroke="#e5e7eb"/>
  <path d="M17.3 7.5h4.6c2.2 0 3.9 1.1 3.6 3.4-.3 2.5-2 3.7-4.3 3.7h-1.8c-.3 0-.5.2-.6.5l-.6 3.4h-2.5l1.6-9.9c.1-.6.6-.6.4-1.1z" fill="#003087"/>
  <path d="M18.6 8.5h4.6c2.2 0 3.9 1.1 3.6 3.4-.3 2.5-2 3.7-4.3 3.7h-1.8c-.3 0-.5.2-.6.5l-.6 3.4h-2.5l1.6-10c.1-.6.4-1 .4-1z" fill="#0070E0"/>
  <path d="M20 10.2h2.3c1 0 1.7.4 1.6 1.4-.1 1-.9 1.5-1.9 1.5h-1.2c-.3 0-.5.2-.5.5l-.5 2.9h-1.5l1-6c.1-.5.6-.8 1.2-.7z" fill="#001C64"/>
</svg>
